<svg width="402" height="46" viewBox="0 0 402 46" fill="none" xmlns="http://www.w3.org/2000/svg">
<g id="flymenu-reactjs">
<path d="M3.79492 10.8545L6.21191 3.50586C7.04199 3.75 7.80697 4.06738 8.50684 4.45801C9.22298 4.84863 9.76009 5.29622 10.1182 5.80078C10.4925 6.30534 10.6797 7.55046 10.6797 9.53613V10.8545H18.9316C19.2083 11.5055 19.3467 12.1973 19.3467 12.9297C19.3467 13.5482 19.2327 13.9632 19.0049 14.1748C18.777 14.3864 18.3376 14.4922 17.6865 14.4922H10.6797V24.1357C10.6797 26.9352 10.9157 28.8395 11.3877 29.8486C11.8597 30.8577 12.641 31.3867 13.7314 31.4355C14.8382 31.4681 16.181 31.0775 17.7598 30.2637C18.2318 30.8984 18.4678 31.6227 18.4678 32.4365C18.4678 33.5433 17.8818 34.292 16.71 34.6826C15.5544 35.057 13.7477 35.2441 11.29 35.2441C8.60449 35.2441 6.68392 34.707 5.52832 33.6328C4.389 32.5586 3.81934 30.4753 3.81934 27.3828V23.1348C3.81934 20.4492 3.73796 17.5684 3.5752 14.4922H1.08496C0.791992 13.7923 0.645508 13.0843 0.645508 12.3682C0.645508 11.8148 0.751302 11.4242 0.962891 11.1963C1.19076 10.9684 1.5651 10.8545 2.08594 10.8545H3.79492ZM21.959 12.0508C21.959 11.4648 22.1706 11.0824 22.5938 10.9033C23.0332 10.7243 25.7269 10.5615 30.6748 10.415C30.7562 11.0986 30.7562 12.0426 30.6748 13.2471C32.7256 12.0426 34.5811 11.2288 36.2412 10.8057C37.9014 10.3825 39.3662 10.1709 40.6357 10.1709C41.2217 10.1709 41.6123 10.2441 41.8076 10.3906C42.0029 10.5208 42.1006 10.8382 42.1006 11.3428C42.1006 12.238 41.9622 13.1738 41.6855 14.1504C41.4251 15.1107 41.0915 15.7292 40.6846 16.0059C40.2939 16.2826 39.6673 16.486 38.8047 16.6162C37.9421 16.7464 37.4375 16.779 37.291 16.7139C37.1608 16.6488 36.7051 16.1035 35.9238 15.0781C34.7194 15.0781 33.7917 15.5176 33.1406 16.3965C32.5059 17.2591 32.1885 19.4971 32.1885 23.1104C32.1885 26.4144 32.2292 29.2627 32.3105 31.6553H36.1436C36.4365 32.1924 36.583 32.7946 36.583 33.4619C36.583 34.0316 36.4609 34.4303 36.2168 34.6582C35.9889 34.8861 35.5332 35 34.8496 35H22.3984C22.1055 34.3164 21.959 33.6735 21.959 33.0713C21.959 32.5667 22.0729 32.2087 22.3008 31.9971C22.5286 31.7692 22.8949 31.6553 23.3994 31.6553H25.1816C25.263 29.2627 25.3037 26.4876 25.3037 23.3301C25.3037 18.7728 25.084 16.0791 24.6445 15.249C24.2214 14.4189 23.4727 14.0039 22.3984 14.0039C22.1055 13.3529 21.959 12.7018 21.959 12.0508ZM56.1875 14.3701C54.9831 14.3701 54.0635 14.8584 53.4287 15.835C52.7939 16.8115 52.4684 18.5124 52.4521 20.9375H53.7461C55.5527 20.9375 56.9281 20.8887 57.8721 20.791C58.8324 20.6771 59.3939 20.498 59.5566 20.2539C59.7194 19.9935 59.8008 19.5703 59.8008 18.9844C59.8008 17.5195 59.4834 16.3883 58.8486 15.5908C58.2139 14.777 57.3268 14.3701 56.1875 14.3701ZM57.1641 10.1465C60.5495 10.1465 63.0072 10.9196 64.5371 12.4658C66.0671 13.9958 66.832 16.4209 66.832 19.7412C66.832 21.3851 66.5065 22.557 65.8555 23.2568C65.2044 23.9567 63.7803 24.3066 61.583 24.3066H52.501C52.5498 26.4388 53.0299 28.1152 53.9414 29.3359C54.8529 30.5404 56.4561 31.1426 58.751 31.1426C60.9971 31.1426 63.3083 30.4915 65.6846 29.1895C66.5309 30.0195 66.9541 30.9147 66.9541 31.875C66.9541 33.1771 65.9938 34.0885 64.0732 34.6094C62.1689 35.1139 59.931 35.3662 57.3594 35.3662C52.9323 35.3662 49.7178 34.471 47.7158 32.6807C45.7139 30.8903 44.7129 27.9362 44.7129 23.8184C44.7129 19.5378 45.8359 16.193 48.082 13.7842C50.3444 11.359 53.3717 10.1465 57.1641 10.1465ZM82.0176 14.3701C80.8132 14.3701 79.8936 14.8584 79.2588 15.835C78.624 16.8115 78.2985 18.5124 78.2822 20.9375H79.5762C81.3828 20.9375 82.7581 20.8887 83.7021 20.791C84.6624 20.6771 85.224 20.498 85.3867 20.2539C85.5495 19.9935 85.6309 19.5703 85.6309 18.9844C85.6309 17.5195 85.3135 16.3883 84.6787 15.5908C84.0439 14.777 83.1569 14.3701 82.0176 14.3701ZM82.9941 10.1465C86.3796 10.1465 88.8372 10.9196 90.3672 12.4658C91.8971 13.9958 92.6621 16.4209 92.6621 19.7412C92.6621 21.3851 92.3366 22.557 91.6855 23.2568C91.0345 23.9567 89.6104 24.3066 87.4131 24.3066H78.3311C78.3799 26.4388 78.86 28.1152 79.7715 29.3359C80.6829 30.5404 82.2861 31.1426 84.5811 31.1426C86.8271 31.1426 89.1383 30.4915 91.5146 29.1895C92.361 30.0195 92.7842 30.9147 92.7842 31.875C92.7842 33.1771 91.8239 34.0885 89.9033 34.6094C87.999 35.1139 85.7611 35.3662 83.1895 35.3662C78.7624 35.3662 75.5479 34.471 73.5459 32.6807C71.5439 30.8903 70.543 27.9362 70.543 23.8184C70.543 19.5378 71.666 16.193 73.9121 13.7842C76.1745 11.359 79.2018 10.1465 82.9941 10.1465ZM120.616 20.083C120.616 25.861 120.657 29.7184 120.738 31.6553H123.399C123.692 32.1924 123.839 32.7946 123.839 33.4619C123.839 34.0316 123.717 34.4303 123.473 34.6582C123.245 34.8861 122.789 35 122.105 35H111.974C111.697 34.3164 111.559 33.6735 111.559 33.0713C111.559 32.5667 111.673 32.2087 111.9 31.9971C112.128 31.7692 112.494 31.6553 112.999 31.6553H113.609C113.691 28.807 113.731 25.9912 113.731 23.208C113.731 19.8877 113.422 17.666 112.804 16.543C112.201 15.4036 111.217 14.834 109.85 14.834C109.02 14.834 108.271 15.1758 107.604 15.8594C106.936 16.5267 106.603 17.9346 106.603 20.083V24.9902C106.603 27.041 106.643 29.2627 106.725 31.6553H108.482C108.759 32.1924 108.897 32.7946 108.897 33.4619C108.897 34.0316 108.775 34.4303 108.531 34.6582C108.303 34.8861 107.848 35 107.164 35H96.8125C96.5195 34.3164 96.373 33.6735 96.373 33.0713C96.373 32.5667 96.487 32.2087 96.7148 31.9971C96.9427 31.7692 97.3089 31.6553 97.8135 31.6553H99.5957C99.6771 28.9697 99.7178 26.1947 99.7178 23.3301C99.7178 18.7728 99.498 16.0791 99.0586 15.249C98.6354 14.4189 97.8867 14.0039 96.8125 14.0039C96.5195 13.3529 96.373 12.7018 96.373 12.0508C96.373 11.4648 96.5846 11.0824 97.0078 10.9033C97.4473 10.7243 100.141 10.5615 105.089 10.415C105.17 11.0986 105.17 12.0345 105.089 13.2227C106.863 12.1159 108.523 11.3346 110.069 10.8789C111.632 10.4069 112.991 10.1709 114.146 10.1709C115.758 10.1709 116.995 10.4232 117.857 10.9277C118.72 11.416 119.33 12.0671 119.688 12.8809C121.153 11.9857 122.643 11.3102 124.156 10.8545C125.67 10.3988 126.98 10.1709 128.087 10.1709C130.219 10.1709 131.839 10.6755 132.945 11.6846C134.068 12.6937 134.63 14.7282 134.63 17.7881C134.63 25.7959 134.776 30.1172 135.069 30.752C135.362 31.3704 135.997 31.6715 136.974 31.6553C137.218 32.2412 137.34 32.8516 137.34 33.4863C137.34 34.0723 137.145 34.471 136.754 34.6826C136.38 34.8942 135.655 35 134.581 35C131.944 35 130.276 34.9593 129.576 34.8779C128.876 34.7965 128.396 34.5361 128.136 34.0967C127.875 33.641 127.745 32.8841 127.745 31.8262V23.208C127.745 19.8877 127.436 17.666 126.817 16.543C126.215 15.4036 125.23 14.834 123.863 14.834C123.033 14.834 122.285 15.1758 121.617 15.8594C120.95 16.5267 120.616 17.9346 120.616 20.083ZM152.086 14.3701C150.882 14.3701 149.962 14.8584 149.327 15.835C148.692 16.8115 148.367 18.5124 148.351 20.9375H149.645C151.451 20.9375 152.826 20.8887 153.771 20.791C154.731 20.6771 155.292 20.498 155.455 20.2539C155.618 19.9935 155.699 19.5703 155.699 18.9844C155.699 17.5195 155.382 16.3883 154.747 15.5908C154.112 14.777 153.225 14.3701 152.086 14.3701ZM153.062 10.1465C156.448 10.1465 158.906 10.9196 160.436 12.4658C161.965 13.9958 162.73 16.4209 162.73 19.7412C162.73 21.3851 162.405 22.557 161.754 23.2568C161.103 23.9567 159.679 24.3066 157.481 24.3066H148.399C148.448 26.4388 148.928 28.1152 149.84 29.3359C150.751 30.5404 152.354 31.1426 154.649 31.1426C156.896 31.1426 159.207 30.4915 161.583 29.1895C162.429 30.0195 162.853 30.9147 162.853 31.875C162.853 33.1771 161.892 34.0885 159.972 34.6094C158.067 35.1139 155.829 35.3662 153.258 35.3662C148.831 35.3662 145.616 34.471 143.614 32.6807C141.612 30.8903 140.611 27.9362 140.611 23.8184C140.611 19.5378 141.734 16.193 143.98 13.7842C146.243 11.359 149.27 10.1465 153.062 10.1465ZM175.157 13.2227C176.931 12.1159 178.632 11.3346 180.26 10.8789C181.904 10.4069 183.279 10.1709 184.386 10.1709C186.681 10.1709 188.382 10.6755 189.488 11.6846C190.611 12.6937 191.173 14.7282 191.173 17.7881C191.173 25.7959 191.319 30.1172 191.612 30.752C191.905 31.3704 192.54 31.6715 193.517 31.6553C193.761 32.2412 193.883 32.8516 193.883 33.4863C193.883 34.0723 193.688 34.471 193.297 34.6826C192.923 34.8942 192.198 35 191.124 35C188.487 35 186.819 34.9593 186.119 34.8779C185.419 34.7965 184.939 34.5361 184.679 34.0967C184.418 33.641 184.288 32.8841 184.288 31.8262V23.208C184.288 19.8877 183.979 17.666 183.36 16.543C182.758 15.4036 181.773 14.834 180.406 14.834C179.251 14.834 178.339 15.1758 177.672 15.8594C177.005 16.5267 176.671 17.9346 176.671 20.083V24.9902C176.671 27.041 176.712 29.2627 176.793 31.6553H179.698C179.975 32.1924 180.113 32.7946 180.113 33.4619C180.113 34.0316 179.991 34.4303 179.747 34.6582C179.519 34.8861 179.063 35 178.38 35H166.881C166.588 34.3164 166.441 33.6735 166.441 33.0713C166.441 32.5667 166.555 32.2087 166.783 31.9971C167.011 31.7692 167.377 31.6553 167.882 31.6553H169.664C169.745 28.9697 169.786 26.1947 169.786 23.3301C169.786 18.7728 169.566 16.0791 169.127 15.249C168.704 14.4189 167.955 14.0039 166.881 14.0039C166.588 13.3529 166.441 12.7018 166.441 12.0508C166.441 11.4648 166.653 11.0824 167.076 10.9033C167.516 10.7243 170.209 10.5615 175.157 10.415C175.239 11.0986 175.239 12.0345 175.157 13.2227ZM220.128 24.209C220.128 27.4479 220.242 29.458 220.47 30.2393C220.714 31.0042 221.316 31.346 222.276 31.2646C222.504 31.8018 222.618 32.3145 222.618 32.8027C222.618 33.6003 222.024 34.2106 220.836 34.6338C219.648 35.0407 218.557 35.2441 217.564 35.2441C216.799 35.2441 216.262 35.1302 215.953 34.9023C215.644 34.6582 215.164 34.0641 214.513 33.1201C212.999 33.8851 211.542 34.471 210.143 34.8779C208.759 35.2848 207.278 35.4883 205.699 35.4883C203.616 35.4883 201.98 34.943 200.792 33.8525C199.604 32.7458 199.01 30.5078 199.01 27.1387C199.01 22.1094 198.977 19.0088 198.912 17.8369C198.863 16.6488 198.741 15.7861 198.546 15.249C198.351 14.6956 198.09 14.3538 197.765 14.2236C197.439 14.0771 196.967 14.0039 196.349 14.0039C196.056 13.5482 195.909 13.0192 195.909 12.417C195.909 11.6683 196.365 11.1475 197.276 10.8545C198.188 10.5615 199.628 10.415 201.598 10.415C203.014 10.415 204.015 10.5046 204.601 10.6836C205.187 10.8464 205.545 11.0986 205.675 11.4404C205.821 11.7822 205.895 12.9297 205.895 14.8828V23.5742C205.895 26.748 206.196 28.8232 206.798 29.7998C207.4 30.7764 208.255 31.2646 209.361 31.2646C210.191 31.2646 210.956 31.0856 211.656 30.7275C212.356 30.3532 212.796 29.873 212.975 29.2871C213.154 28.6849 213.243 27.6107 213.243 26.0645C213.243 21.7513 213.235 19.0088 213.219 17.8369C213.202 16.665 213.113 15.8024 212.95 15.249C212.787 14.6956 212.576 14.3538 212.315 14.2236C212.071 14.0771 211.64 14.0039 211.021 14.0039C210.729 13.5482 210.582 13.0192 210.582 12.417C210.582 11.6683 211.038 11.1475 211.949 10.8545C212.877 10.5615 214.171 10.415 215.831 10.415C217.247 10.415 218.248 10.5046 218.834 10.6836C219.42 10.8464 219.778 11.1393 219.908 11.5625C220.055 11.9694 220.128 13.1576 220.128 15.127V24.209Z" fill="#EC7574"/>
<path d="M240.782 19.4727C241.075 20.1888 241.222 21.1247 241.222 22.2803C241.222 23.0778 241.075 23.6475 240.782 23.9893C240.506 24.3148 240.017 24.4775 239.317 24.4775H226.842C226.549 23.5986 226.402 22.6546 226.402 21.6455C226.402 20.7666 226.549 20.1888 226.842 19.9121C227.135 19.6191 227.534 19.4727 228.038 19.4727H240.782ZM244.859 12.0508C244.859 11.4648 245.071 11.0824 245.494 10.9033C245.934 10.7243 248.627 10.5615 253.575 10.415C253.657 11.0986 253.657 12.0426 253.575 13.2471C255.626 12.0426 257.481 11.2288 259.142 10.8057C260.802 10.3825 262.267 10.1709 263.536 10.1709C264.122 10.1709 264.513 10.2441 264.708 10.3906C264.903 10.5208 265.001 10.8382 265.001 11.3428C265.001 12.238 264.863 13.1738 264.586 14.1504C264.326 15.1107 263.992 15.7292 263.585 16.0059C263.194 16.2826 262.568 16.486 261.705 16.6162C260.842 16.7464 260.338 16.779 260.191 16.7139C260.061 16.6488 259.605 16.1035 258.824 15.0781C257.62 15.0781 256.692 15.5176 256.041 16.3965C255.406 17.2591 255.089 19.4971 255.089 23.1104C255.089 26.4144 255.13 29.2627 255.211 31.6553H259.044C259.337 32.1924 259.483 32.7946 259.483 33.4619C259.483 34.0316 259.361 34.4303 259.117 34.6582C258.889 34.8861 258.434 35 257.75 35H245.299C245.006 34.3164 244.859 33.6735 244.859 33.0713C244.859 32.5667 244.973 32.2087 245.201 31.9971C245.429 31.7692 245.795 31.6553 246.3 31.6553H248.082C248.163 29.2627 248.204 26.4876 248.204 23.3301C248.204 18.7728 247.984 16.0791 247.545 15.249C247.122 14.4189 246.373 14.0039 245.299 14.0039C245.006 13.3529 244.859 12.7018 244.859 12.0508ZM279.088 14.3701C277.883 14.3701 276.964 14.8584 276.329 15.835C275.694 16.8115 275.369 18.5124 275.353 20.9375H276.646C278.453 20.9375 279.828 20.8887 280.772 20.791C281.733 20.6771 282.294 20.498 282.457 20.2539C282.62 19.9935 282.701 19.5703 282.701 18.9844C282.701 17.5195 282.384 16.3883 281.749 15.5908C281.114 14.777 280.227 14.3701 279.088 14.3701ZM280.064 10.1465C283.45 10.1465 285.908 10.9196 287.438 12.4658C288.967 13.9958 289.732 16.4209 289.732 19.7412C289.732 21.3851 289.407 22.557 288.756 23.2568C288.105 23.9567 286.681 24.3066 284.483 24.3066H275.401C275.45 26.4388 275.93 28.1152 276.842 29.3359C277.753 30.5404 279.356 31.1426 281.651 31.1426C283.897 31.1426 286.209 30.4915 288.585 29.1895C289.431 30.0195 289.854 30.9147 289.854 31.875C289.854 33.1771 288.894 34.0885 286.974 34.6094C285.069 35.1139 282.831 35.3662 280.26 35.3662C275.833 35.3662 272.618 34.471 270.616 32.6807C268.614 30.8903 267.613 27.9362 267.613 23.8184C267.613 19.5378 268.736 16.193 270.982 13.7842C273.245 11.359 276.272 10.1465 280.064 10.1465ZM308.922 33.1201C307.701 33.7386 306.31 34.292 304.747 34.7803C303.185 35.2523 301.712 35.4883 300.328 35.4883C297.968 35.4883 296.235 34.943 295.128 33.8525C294.037 32.762 293.492 31.2321 293.492 29.2627C293.492 26.512 294.436 24.4694 296.324 23.1348C298.212 21.8001 301.191 21.1328 305.26 21.1328H307.921C307.774 18.6263 307.359 16.9173 306.676 16.0059C305.992 15.0781 304.967 14.6143 303.6 14.6143C302.851 14.6143 302.037 14.7119 301.158 14.9072C300.589 15.9814 300.247 16.5511 300.133 16.6162C300.035 16.6813 299.474 16.8278 298.448 17.0557C297.439 17.2835 296.723 17.2103 296.3 16.8359C295.877 16.4616 295.445 15.8024 295.006 14.8584C294.583 13.9144 294.371 13.1169 294.371 12.4658C294.371 12.0589 294.534 11.7415 294.859 11.5137C295.201 11.2858 296.438 11.0417 298.57 10.7812C300.702 10.5208 302.973 10.3906 305.382 10.3906C308.246 10.3906 310.493 10.887 312.12 11.8799C313.748 12.8564 314.562 14.7607 314.562 17.5928V24.0625C314.562 27.6595 314.716 29.873 315.025 30.7031C315.335 31.5169 315.888 31.8343 316.686 31.6553C316.93 32.111 317.052 32.5586 317.052 32.998C317.052 33.7305 316.612 34.292 315.733 34.6826C314.871 35.057 313.699 35.2441 312.218 35.2441C311.567 35.2441 311.054 35.1628 310.68 35C310.305 34.8372 309.719 34.2106 308.922 33.1201ZM307.921 25.0146C306.749 24.7705 305.561 24.6484 304.356 24.6484C302.989 24.6484 302.013 24.8763 301.427 25.332C300.841 25.7878 300.548 26.6504 300.548 27.9199C300.548 29.0267 300.833 29.8649 301.402 30.4346C301.988 30.988 302.835 31.2646 303.941 31.2646C304.82 31.2646 305.593 31.0775 306.261 30.7031C306.944 30.3288 307.392 29.7998 307.604 29.1162C307.815 28.4163 307.921 27.513 307.921 26.4062V25.0146ZM332.628 35.4883C328.119 35.4883 324.97 34.6582 323.18 32.998C321.389 31.3216 320.494 28.457 320.494 24.4043C320.494 19.847 321.658 16.3314 323.985 13.8574C326.329 11.3835 329.82 10.1465 334.459 10.1465C336.9 10.1465 338.585 10.3581 339.513 10.7812C340.457 11.2044 340.945 11.9124 340.978 12.9053C340.978 14.1748 340.579 15.3304 339.781 16.3721C337.079 15.0374 334.882 14.3701 333.189 14.3701C331.497 14.3701 330.243 14.9723 329.43 16.1768C328.632 17.3649 328.233 19.4645 328.233 22.4756C328.233 25.4541 328.624 27.6676 329.405 29.1162C330.203 30.5485 331.643 31.2646 333.727 31.2646C335.419 31.2646 337.592 30.638 340.245 29.3848C340.929 30.3288 341.271 31.3216 341.271 32.3633C341.271 33.4212 340.408 34.2106 338.683 34.7314C336.957 35.236 334.939 35.4883 332.628 35.4883ZM347.154 10.8545L349.571 3.50586C350.401 3.75 351.166 4.06738 351.866 4.45801C352.582 4.84863 353.119 5.29622 353.478 5.80078C353.852 6.30534 354.039 7.55046 354.039 9.53613V10.8545H362.291C362.568 11.5055 362.706 12.1973 362.706 12.9297C362.706 13.5482 362.592 13.9632 362.364 14.1748C362.136 14.3864 361.697 14.4922 361.046 14.4922H354.039V24.1357C354.039 26.9352 354.275 28.8395 354.747 29.8486C355.219 30.8577 356 31.3867 357.091 31.4355C358.198 31.4681 359.54 31.0775 361.119 30.2637C361.591 30.8984 361.827 31.6227 361.827 32.4365C361.827 33.5433 361.241 34.292 360.069 34.6826C358.914 35.057 357.107 35.2441 354.649 35.2441C351.964 35.2441 350.043 34.707 348.888 33.6328C347.748 32.5586 347.179 30.4753 347.179 27.3828V23.1348C347.179 20.4492 347.097 17.5684 346.935 14.4922H344.444C344.151 13.7923 344.005 13.0843 344.005 12.3682C344.005 11.8148 344.111 11.4242 344.322 11.1963C344.55 10.9684 344.924 10.8545 345.445 10.8545H347.154ZM375.475 14.6875C375.475 20.498 375.491 24.7624 375.523 27.4805C375.556 30.1823 375.572 32.9167 375.572 35.6836C375.572 37.9948 375.247 39.834 374.596 41.2012C373.945 42.5684 372.903 43.667 371.471 44.4971C370.055 45.3271 368.036 45.7422 365.416 45.7422C363.674 45.7422 362.47 45.6201 361.803 45.376C361.119 45.1318 360.777 44.5052 360.777 43.4961C360.777 42.4219 361.135 41.4128 361.852 40.4688C364.57 41.2826 366.368 41.5267 367.247 41.2012C368.142 40.8757 368.59 38.8086 368.59 35V24.9902C368.59 21.3932 368.557 19.0088 368.492 17.8369C368.443 16.665 368.321 15.8024 368.126 15.249C367.931 14.6956 367.613 14.3538 367.174 14.2236C366.734 14.0771 366.157 14.0039 365.44 14.0039C365.164 13.5482 365.025 13.0192 365.025 12.417C365.025 11.6683 365.31 11.1475 365.88 10.8545C366.45 10.5615 368.215 10.415 371.178 10.415C372.838 10.415 373.928 10.4964 374.449 10.6592C374.97 10.8219 375.271 11.1312 375.353 11.5869C375.434 12.0264 375.475 13.0599 375.475 14.6875ZM370.714 7.24121C369.249 7.24121 368.191 6.96452 367.54 6.41113C366.889 5.84147 366.563 5.04395 366.563 4.01855C366.58 2.94434 366.995 2.06543 367.809 1.38184C368.639 0.681966 369.819 0.332031 371.349 0.332031C372.911 0.332031 374.018 0.633138 374.669 1.23535C375.32 1.82129 375.646 2.5944 375.646 3.55469C375.646 4.61263 375.255 5.49154 374.474 6.19141C373.692 6.89128 372.439 7.24121 370.714 7.24121ZM393.175 10.1465C395.632 10.1465 397.529 10.3825 398.863 10.8545C400.198 11.3102 400.865 12.0833 400.865 13.1738C400.865 14.3294 400.401 15.5013 399.474 16.6895C395.958 15.1432 393.264 14.3701 391.393 14.3701C390.4 14.3701 389.659 14.5573 389.171 14.9316C388.699 15.306 388.463 15.8431 388.463 16.543C388.463 17.2754 388.78 17.9102 389.415 18.4473C390.066 18.9844 391.555 19.668 393.883 20.498C396.601 21.4258 398.53 22.443 399.669 23.5498C400.825 24.6566 401.402 26.1133 401.402 27.9199C401.402 30.3613 400.401 32.2331 398.399 33.5352C396.414 34.8372 393.72 35.4883 390.318 35.4883C387.177 35.4883 384.939 35.2767 383.604 34.8535C382.27 34.4141 381.594 33.5189 381.578 32.168C381.578 31.1589 381.977 30.166 382.774 29.1895C386.013 30.5729 388.886 31.2646 391.393 31.2646C392.418 31.2646 393.215 31.0938 393.785 30.752C394.355 30.4102 394.64 29.8405 394.64 29.043C394.64 28.1152 394.135 27.3747 393.126 26.8213C392.133 26.2679 390.53 25.568 388.316 24.7217C385.94 23.8102 384.239 22.8337 383.214 21.792C382.205 20.734 381.7 19.3831 381.7 17.7393C381.7 15.4281 382.709 13.5889 384.728 12.2217C386.762 10.8382 389.578 10.1465 393.175 10.1465Z" fill="#61DAFB"/>
</g>
</svg>
