<svg width="411" height="54" viewBox="0 0 411 54" fill="none" xmlns="http://www.w3.org/2000/svg">
<path d="M14.9346 36.1215C16.1526 36.1215 17.4502 35.8037 18.8271 35.1682L19.4626 35.8037L18.6682 40.4112C16.7087 41.4704 14.6698 42.1059 12.5514 42.3178C7.20249 41.7882 4.50156 39.1931 4.4486 34.5327L4.76636 29.528V19.2804H1.03271L0.714953 18.9626L1.11215 14.5935H4.60748V9.98598L11.8364 7.68224L12.3925 8.15888L12.1542 14.5935H19.3037L19.5421 14.9907L19.2243 19.2804H12.0748L11.757 32.6262C11.757 33.8972 11.9688 34.7975 12.3925 35.3271C12.8692 35.8567 13.7165 36.1215 14.9346 36.1215ZM38.832 14.2757C39.2027 14.3287 39.7058 14.3816 40.3413 14.4346V21.6636L39.5469 21.9813C38.8585 21.7165 38.117 21.5841 37.3226 21.5841C35.0454 21.5841 32.9535 23.0405 31.0469 25.9533V29.8458L31.5236 42H23.5796L23.9768 30.5607L23.6591 14.8318L31.2058 14.1963L31.1264 19.6776H31.603C33.5096 16.1293 35.9192 14.3287 38.832 14.2757ZM49.6469 29.2103C49.9647 34.2414 52.4008 36.757 56.9553 36.757C59.5503 36.757 62.2248 36.0156 64.9787 34.5327L65.6142 35.0093L64.5815 40.8084C61.8276 41.9735 59.0472 42.5826 56.2404 42.6355C51.8447 42.6355 48.4288 41.3645 45.9927 38.8224C43.5566 36.2804 42.3385 32.785 42.3385 28.3364C42.3385 23.8349 43.5566 20.3131 45.9927 17.771C48.4818 15.176 51.6329 13.8785 55.446 13.8785C59.259 13.8785 62.0924 14.8583 63.946 16.8178C65.8525 18.7243 66.8058 21.3723 66.8058 24.7617C66.8058 25.8209 66.7263 26.9065 66.5675 28.0187L65.3759 29.1308L49.6469 29.2103ZM55.6843 19.0421C54.1485 19.0421 52.8509 19.5452 51.7918 20.5514C50.7855 21.5576 50.1235 22.9875 49.8058 24.8411L59.8151 24.5234L59.974 23.8879C59.921 20.6573 58.4911 19.0421 55.6843 19.0421ZM77.6205 29.2103C77.9383 34.2414 80.3744 36.757 84.9289 36.757C87.524 36.757 90.1984 36.0156 92.9523 34.5327L93.5878 35.0093L92.5551 40.8084C89.8012 41.9735 87.0208 42.5826 84.214 42.6355C79.8183 42.6355 76.4025 41.3645 73.9663 38.8224C71.5302 36.2804 70.3121 32.785 70.3121 28.3364C70.3121 23.8349 71.5302 20.3131 73.9663 17.771C76.4554 15.176 79.6065 13.8785 83.4196 13.8785C87.2327 13.8785 90.066 14.8583 91.9196 16.8178C93.8261 18.7243 94.7794 21.3723 94.7794 24.7617C94.7794 25.8209 94.7 26.9065 94.5411 28.0187L93.3495 29.1308L77.6205 29.2103ZM83.6579 19.0421C82.1221 19.0421 80.8246 19.5452 79.7654 20.5514C78.7592 21.5576 78.0972 22.9875 77.7794 24.8411L87.7888 24.5234L87.9476 23.8879C87.8947 20.6573 86.4648 19.0421 83.6579 19.0421ZM133.716 24.7617C133.769 21.8489 132.524 20.3925 129.982 20.3925C128.181 20.3925 126.301 21.1869 124.342 22.7757L124.262 29.8458L124.501 42H116.636L117.113 24.7617C117.113 21.8489 115.842 20.3925 113.3 20.3925C111.499 20.3925 109.593 21.1869 107.58 22.7757V29.8458L107.977 42H100.113L100.51 30.5607L100.192 14.8318L107.66 14.1963V18.2477H108.057C110.334 16.2352 112.717 14.8053 115.206 13.9579C119.708 13.9579 122.568 15.4408 123.786 18.4065H124.024C126.354 16.2882 128.949 14.8053 131.809 13.9579C134.828 13.9579 137.105 14.6464 138.641 16.0234C140.23 17.4003 140.998 19.3598 140.945 21.9019L140.786 29.8458L141.104 42H133.239L133.716 24.7617ZM153.407 29.2103C153.724 34.2414 156.161 36.757 160.715 36.757C163.31 36.757 165.985 36.0156 168.738 34.5327L169.374 35.0093L168.341 40.8084C165.587 41.9735 162.807 42.5826 160 42.6355C155.604 42.6355 152.189 41.3645 149.752 38.8224C147.316 36.2804 146.098 32.785 146.098 28.3364C146.098 23.8349 147.316 20.3131 149.752 17.771C152.242 15.176 155.393 13.8785 159.206 13.8785C163.019 13.8785 165.852 14.8583 167.706 16.8178C169.612 18.7243 170.566 21.3723 170.566 24.7617C170.566 25.8209 170.486 26.9065 170.327 28.0187L169.136 29.1308L153.407 29.2103ZM159.444 19.0421C157.908 19.0421 156.611 19.5452 155.552 20.5514C154.545 21.5576 153.883 22.9875 153.566 24.8411L163.575 24.5234L163.734 23.8879C163.681 20.6573 162.251 19.0421 159.444 19.0421ZM192.899 24.7617C192.899 21.8489 191.654 20.3925 189.165 20.3925C187.365 20.3925 185.458 21.2399 183.446 22.9346V29.8458L183.843 42H175.899L176.296 30.5607L175.978 14.8318L183.525 14.1963V18.2477H183.922C186.2 16.2352 188.583 14.8053 191.072 13.9579C194.091 13.9579 196.368 14.6464 197.904 16.0234C199.492 17.4003 200.26 19.3598 200.207 21.9019L200.049 29.8458L200.366 42H192.422L192.899 24.7617ZM231.501 36.5981C231.978 36.5981 232.534 36.5187 233.17 36.3598L233.726 36.8364L233.011 40.9673C231.74 41.7617 230.283 42.2648 228.642 42.4766C226.152 42.2648 224.59 40.7819 223.955 38.028H223.319C221.042 40.1994 218.712 41.6293 216.328 42.3178C213.363 42.3178 211.085 41.6558 209.497 40.3318C207.908 38.9548 207.113 36.9688 207.113 34.3738L207.272 27.3832L207.034 14.8318L214.66 14.1963L214.422 31.7523C214.422 34.5592 215.613 35.9626 217.997 35.9626C219.691 35.9626 221.413 35.1947 223.16 33.6589V14.8318L230.707 14.1963L230.23 34.8505C230.23 36.0156 230.654 36.5981 231.501 36.5981Z" fill="#EC7574"/>
<path d="M250.945 28.5748L236.884 30.7991L236.169 30.0841V25.1589L250.388 23.014L250.945 23.6495V28.5748ZM271.42 14.2757C271.791 14.3287 272.294 14.3816 272.929 14.4346V21.6636L272.135 21.9813C271.446 21.7165 270.705 21.5841 269.911 21.5841C267.633 21.5841 265.541 23.0405 263.635 25.9533V29.8458L264.111 42H256.168L256.565 30.5607L256.247 14.8318L263.794 14.1963L263.714 19.6776H264.191C266.097 16.1293 268.507 14.3287 271.42 14.2757ZM282.235 29.2103C282.553 34.2414 284.989 36.757 289.543 36.757C292.138 36.757 294.813 36.0156 297.567 34.5327L298.202 35.0093L297.169 40.8084C294.415 41.9735 291.635 42.5826 288.828 42.6355C284.433 42.6355 281.017 41.3645 278.581 38.8224C276.144 36.2804 274.926 32.785 274.926 28.3364C274.926 23.8349 276.144 20.3131 278.581 17.771C281.07 15.176 284.221 13.8785 288.034 13.8785C291.847 13.8785 294.68 14.8583 296.534 16.8178C298.44 18.7243 299.394 21.3723 299.394 24.7617C299.394 25.8209 299.314 26.9065 299.155 28.0187L297.964 29.1308L282.235 29.2103ZM288.272 19.0421C286.736 19.0421 285.439 19.5452 284.38 20.5514C283.373 21.5576 282.711 22.9875 282.394 24.8411L292.403 24.5234L292.562 23.8879C292.509 20.6573 291.079 19.0421 288.272 19.0421ZM314.895 13.7991C318.444 13.7991 321.092 14.4875 322.839 15.8645C324.587 17.2414 325.461 19.148 325.461 21.5841C325.461 22.2726 325.328 24.5234 325.064 28.3364C325.064 28.3364 324.984 30.5078 324.825 34.8505C324.825 35.5389 324.905 36.0156 325.064 36.2804C325.222 36.4922 325.54 36.5981 326.017 36.5981C326.493 36.5981 327.05 36.5187 327.685 36.3598L328.321 36.8364L327.526 40.9673C326.255 41.7617 324.825 42.2648 323.236 42.4766C320.694 42.2648 319.159 40.8084 318.629 38.1075H318.232C316.219 40.2259 314.18 41.7087 312.115 42.5561C309.255 42.5031 307.004 41.7352 305.363 40.2523C303.721 38.7695 302.9 36.7835 302.9 34.2944C302.9 30.4283 304.939 28.0981 309.017 27.3037L318.152 25.6355V23.1729C318.152 20.5779 316.934 19.2804 314.498 19.2804C312.062 19.2804 309.202 20.419 305.919 22.6963L305.283 22.3785L304.409 17.1355C307.905 14.9112 311.4 13.7991 314.895 13.7991ZM311.797 30.9579C310.579 31.2227 309.97 31.9642 309.97 33.1822C309.97 35.5654 311.003 36.757 313.068 36.757C314.604 36.757 316.246 35.8302 317.993 33.9766L318.152 29.528L311.797 30.9579ZM344.721 13.7991C347.475 13.7991 349.911 14.3022 352.029 15.3084L350.758 21.5841L350.043 21.9019C348.031 20.7897 346.177 20.2336 344.483 20.2336C342.788 20.2336 341.438 20.8956 340.431 22.2196C339.425 23.4907 338.922 25.4237 338.922 28.0187C338.922 30.6137 339.452 32.6526 340.511 34.1355C341.623 35.6184 343.106 36.3598 344.959 36.3598C346.866 36.3598 348.905 35.8567 351.076 34.8505L351.632 35.3271L350.917 41.4439C348.534 42.1854 346.072 42.5826 343.529 42.6355C339.716 42.6355 336.751 41.391 334.632 38.9019C332.514 36.4128 331.455 32.9174 331.455 28.4159C331.455 23.8614 332.62 20.2866 334.95 17.6916C337.28 15.0966 340.537 13.7991 344.721 13.7991ZM367.469 36.1215C368.687 36.1215 369.984 35.8037 371.361 35.1682L371.997 35.8037L371.202 40.4112C369.243 41.4704 367.204 42.1059 365.086 42.3178C359.737 41.7882 357.036 39.1931 356.983 34.5327L357.301 29.528V19.2804H353.567L353.249 18.9626L353.646 14.5935H357.142V9.98598L364.371 7.68224L364.927 8.15888L364.688 14.5935H371.838L372.076 14.9907L371.758 19.2804H364.609L364.291 32.6262C364.291 33.8972 364.503 34.7975 364.927 35.3271C365.403 35.8567 366.251 36.1215 367.469 36.1215ZM380.96 0.771027C382.231 0.771027 383.21 1.14174 383.899 1.88318C384.64 2.57165 385.011 3.57788 385.011 4.90187C385.011 6.1729 384.614 7.20561 383.819 8C383.078 8.79439 382.072 9.19159 380.801 9.19159C379.53 9.19159 378.523 8.84735 377.782 8.15888C377.041 7.41744 376.67 6.41121 376.67 5.14019C376.67 3.86916 377.067 2.83645 377.861 2.04206C378.656 1.1947 379.689 0.771027 380.96 0.771027ZM385.17 29.8458L385.488 40.4112C385.488 43.5888 384.72 46.1838 383.184 48.1963C381.701 50.2617 379.238 52.0623 375.796 53.5981L373.016 50.1028V49.3879C374.816 48.3816 376.087 47.19 376.829 45.8131C377.623 44.4361 378.02 42.6885 378.02 40.5701L378.1 30.5607L377.782 19.2804H373.095L372.619 18.8832L372.936 14.5935H378.02L385.408 14.1168L385.567 14.2757L385.17 29.8458ZM401.782 13.8785C404.801 13.8255 407.502 14.2757 409.885 15.229L408.852 21.028L407.899 21.3458C405.516 19.81 403.344 19.0421 401.385 19.0421C400.432 19.0421 399.664 19.3069 399.081 19.8364C398.552 20.3131 398.287 20.9221 398.287 21.6636C398.287 22.405 398.658 23.0405 399.399 23.5701C400.14 24.0997 401.306 24.6822 402.894 25.3178C404.483 25.9533 405.781 26.5888 406.787 27.2243C407.846 27.8069 408.746 28.6277 409.488 29.6869C410.229 30.6931 410.6 31.9907 410.6 33.5794C410.6 35.1682 410.203 36.6511 409.408 38.028C407.555 41.0997 404.245 42.6355 399.478 42.6355C396.619 42.6355 393.653 42.0265 390.581 40.8084L391.535 34.6121L392.249 34.1355C393.468 35.1947 394.844 36.0421 396.38 36.6776C397.916 37.2601 399.24 37.5514 400.352 37.5514C401.464 37.5514 402.312 37.2866 402.894 36.757C403.477 36.2274 403.768 35.5919 403.768 34.8505C403.768 34.0561 403.397 33.3941 402.656 32.8645C401.915 32.2819 400.749 31.6729 399.161 31.0374C397.572 30.3489 396.274 29.7134 395.268 29.1308C392.726 27.7009 391.455 25.609 391.455 22.8551C391.455 20.1012 392.408 17.9299 394.315 16.3411C396.274 14.6994 398.763 13.8785 401.782 13.8785Z" fill="#61DAFB"/>
</svg>
